<svg xmlns="http://www.w3.org/2000/svg" viewBox="0 0 192 192">
  <defs>
    <linearGradient id="bg192" x1="0%" y1="0%" x2="100%" y2="100%">
      <stop offset="0%" style="stop-color:#3b82f6"/>
      <stop offset="100%" style="stop-color:#1d4ed8"/>
    </linearGradient>
  </defs>
  <rect width="192" height="192" rx="24" fill="url(#bg192)"/>
  <g transform="translate(96, 96)">
    <!-- Open book -->
    <g fill="white">
      <!-- Left page -->
      <path d="M-50 -30c0-5 4-9 9-9h36v78h-36c-5 0-9-4-9-9v-60z" opacity="0.95"/>
      <!-- Right page -->
      <path d="M5 -39h36c5 0 9 4 9 9v60c0 5-4 9-9 9H5v-78z" opacity="0.8"/>
      <!-- Center binding -->
      <rect x="-5" y="-39" width="10" height="78" opacity="0.6"/>
      <!-- Page lines left -->
      <g opacity="0.3">
        <rect x="-40" y="-20" width="30" height="3" rx="1"/>
        <rect x="-40" y="-10" width="25" height="3" rx="1"/>
        <rect x="-40" y="0" width="28" height="3" rx="1"/>
        <rect x="-40" y="10" width="22" height="3" rx="1"/>
        <rect x="-40" y="20" width="26" height="3" rx="1"/>
      </g>
      <!-- Page lines right -->
      <g opacity="0.3">
        <rect x="15" y="-20" width="28" height="3" rx="1"/>
        <rect x="15" y="-10" width="24" height="3" rx="1"/>
        <rect x="15" y="0" width="30" height="3" rx="1"/>
        <rect x="15" y="10" width="20" height="3" rx="1"/>
        <rect x="15" y="20" width="25" height="3" rx="1"/>
      </g>
    </g>
    <!-- Graduation cap on top -->
    <g fill="white" transform="translate(0, -55)">
      <polygon points="0,-20 40,0 0,10 -40,0" opacity="0.9"/>
      <rect x="-3" y="0" width="6" height="15" opacity="0.7"/>
      <circle cx="0" cy="18" r="5" opacity="0.7"/>
    </g>
  </g>
</svg>
