<svg xmlns="http://www.w3.org/2000/svg" viewBox="0 0 512 512">
  <defs>
    <linearGradient id="bg512" x1="0%" y1="0%" x2="100%" y2="100%">
      <stop offset="0%" style="stop-color:#3b82f6"/>
      <stop offset="100%" style="stop-color:#1d4ed8"/>
    </linearGradient>
  </defs>
  <rect width="512" height="512" rx="64" fill="url(#bg512)"/>
  <g transform="translate(256, 270)">
    <!-- Open book -->
    <g fill="white">
      <!-- Left page -->
      <path d="M-130 -80c0-12 10-22 22-22h95v200h-95c-12 0-22-10-22-22v-156z" opacity="0.95"/>
      <!-- Right page -->
      <path d="M13 -102h95c12 0 22 10 22 22v156c0 12-10 22-22 22H13v-200z" opacity="0.8"/>
      <!-- Center binding -->
      <rect x="-13" y="-102" width="26" height="200" opacity="0.6"/>
      <!-- Page lines left -->
      <g opacity="0.3">
        <rect x="-105" y="-55" width="75" height="8" rx="2"/>
        <rect x="-105" y="-30" width="65" height="8" rx="2"/>
        <rect x="-105" y="-5" width="70" height="8" rx="2"/>
        <rect x="-105" y="20" width="55" height="8" rx="2"/>
        <rect x="-105" y="45" width="68" height="8" rx="2"/>
        <rect x="-105" y="70" width="60" height="8" rx="2"/>
      </g>
      <!-- Page lines right -->
      <g opacity="0.3">
        <rect x="38" y="-55" width="72" height="8" rx="2"/>
        <rect x="38" y="-30" width="62" height="8" rx="2"/>
        <rect x="38" y="-5" width="78" height="8" rx="2"/>
        <rect x="38" y="20" width="52" height="8" rx="2"/>
        <rect x="38" y="45" width="65" height="8" rx="2"/>
        <rect x="38" y="70" width="58" height="8" rx="2"/>
      </g>
    </g>
    <!-- Graduation cap on top -->
    <g fill="white" transform="translate(0, -145)">
      <polygon points="0,-50 100,0 0,25 -100,0" opacity="0.9"/>
      <rect x="-8" y="0" width="16" height="40" opacity="0.7"/>
      <circle cx="0" cy="48" r="12" opacity="0.7"/>
    </g>
  </g>
</svg>
